{
  "accessors": [
    {
      "bufferView": 2,
      "componentType": 5126,
      "count": 10553,
      "max": [
        47.135795593261719,
        69.365585327148438,
        120.4801025390625
      ],
      "min": [
        -42.555286407470703,
        -123.86875915527344,
        -109.813232421875
      ],
      "type": "VEC3"
    },
    {
      "bufferView": 2,
      "byteOffset": 126636,
      "componentType": 5126,
      "count": 10553,
      "max": [
        0.99983477592468262,
        0.99980533123016357,
        0.99994295835494995
      ],
      "min": [
        -0.99979883432388306,
        -0.99936974048614502,
        -0.99943584203720093
      ],
      "type": "VEC3"
    },
    {
      "bufferView": 3,
      "componentType": 5126,
      "count": 10553,
      "max": [
        0.99941122531890869,
        0.99992227554321289,
        0.99997121095657349,
        1
      ],
      "min": [
        -0.9999392032623291,
        -0.99992948770523071,
        -0.9999048113822937,
        -1
      ],
      "type": "VEC4"
    },
    {
      "bufferView": 1,
      "componentType": 5126,
      "count": 10553,
      "max": [
        0.99542808532714844,
        0.99726700782775879
      ],
      "min": [
        -0.001534581184387207,
        0
      ],
      "type": "VEC2"
    },
    {
      "bufferView": 0,
      "componentType": 5125,
      "count": 47310,
      "max": [
        10552
      ],
      "min": [
        0
      ],
      "type": "SCALAR"
    }
  ],
  "asset": {
    "extras": {
      "author": "Stefan William Rudebjer (https://sketchfab.com/stefan_wr)",
      "license": "CC-BY-4.0 (http://creativecommons.org/licenses/by/4.0/)",
      "source": "https://sketchfab.com/3d-models/deep-sea-guardian-f8676339253245f097a466ecc54af905",
      "title": "Deep Sea Guardian"
    },
    "generator": "Sketchfab-8.51.0",
    "version": "2.0"
  },
  "bufferViews": [
    {
      "buffer": 0,
      "byteLength": 189240,
      "byteOffset": 0,
      "name": "floatBufferViews",
      "target": 34963
    },
    {
      "buffer": 0,
      "byteLength": 84424,
      "byteOffset": 189240,
      "byteStride": 8,
      "name": "floatBufferViews",
      "target": 34962
    },
    {
      "buffer": 0,
      "byteLength": 253272,
      "byteOffset": 273664,
      "byteStride": 12,
      "name": "floatBufferViews",
      "target": 34962
    },
    {
      "buffer": 0,
      "byteLength": 168848,
      "byteOffset": 526936,
      "byteStride": 16,
      "name": "floatBufferViews",
      "target": 34962
    }
  ],
  "buffers": [
    {
      "byteLength": 695784,
      "uri": "scene.bin"
    }
  ],
  "images": [
    {
      "uri": "textures/sea_warrior_sea_warrior_T_sea_warrior_baseColor.png"
    },
    {
      "uri": "textures/sea_warrior_sea_warrior_T_sea_warrior_metallicRoughness.png"
    },
    {
      "uri": "textures/sea_warrior_sea_warrior_T_sea_warrior_normal.png"
    }
  ],
  "materials": [
    {
      "alphaMode": "BLEND",
      "doubleSided": true,
      "name": "sea_warrior_sea_warrior_T_sea_warrior",
      "normalTexture": {
        "index": 2,
        "scale": 1,
        "texCoord": 0
      },
      "occlusionTexture": {
        "index": 1,
        "strength": 1,
        "texCoord": 0
      },
      "pbrMetallicRoughness": {
        "baseColorFactor": [
          1,
          1,
          1,
          1
        ],
        "baseColorTexture": {
          "index": 0,
          "texCoord": 0
        },
        "metallicFactor": 1,
        "metallicRoughnessTexture": {
          "index": 1,
          "texCoord": 0
        },
        "roughnessFactor": 1
      }
    }
  ],
  "meshes": [
    {
      "name": "sea_warrior_merged_sea_warrior_sea_warrior_T_sea_warrior_0",
      "primitives": [
        {
          "attributes": {
            "NORMAL": 1,
            "POSITION": 0,
            "TANGENT": 2,
            "TEXCOORD_0": 3
          },
          "indices": 4,
          "material": 0,
          "mode": 4
        }
      ]
    }
  ],
  "nodes": [
    {
      "children": [
        1
      ],
      "name": "RootNode (gltf orientation matrix)",
      "rotation": [
        -0.70710678118654746,
        -0,
        -0,
        0.70710678118654757
      ]
    },
    {
      "children": [
        2
      ],
      "name": "RootNode (model correction matrix)"
    },
    {
      "children": [
        3
      ],
      "matrix": [
        1,
        0,
        0,
        0,
        0,
        0,
        1,
        0,
        0,
        -1,
        0,
        0,
        0,
        0,
        0,
        1
      ],
      "name": "d9e2b3160d2d4bf8864066dce8dec112.fbx"
    },
    {
      "children": [
        4
      ],
      "name": "RootNode"
    },
    {
      "children": [
        5
      ],
      "name": "sea_warrior_merged"
    },
    {
      "mesh": 0,
      "name": "sea_warrior_merged_sea_warrior_sea_warrior_T_sea_warrior_0"
    }
  ],
  "samplers": [
    {
      "magFilter": 9729,
      "minFilter": 9987,
      "wrapS": 10497,
      "wrapT": 10497
    }
  ],
  "scene": 0,
  "scenes": [
    {
      "name": "OSG_Scene",
      "nodes": [
        0
      ]
    }
  ],
  "textures": [
    {
      "sampler": 0,
      "source": 0
    },
    {
      "sampler": 0,
      "source": 1
    },
    {
      "sampler": 0,
      "source": 2
    }
  ]
}

